# xmcd CD database file
#
# Track frame offsets:
#	150
#	26419
#	85189
#	108609
#	136111
#	162089
#	185963
#	217644
#	247131
#
# Disc length: 3746 seconds
#
# Revision: 0
# Processed by: cddbd v1.5.2PL0 Copyright (c) Steve Scherf et al.
# Submitted via: CDex 1.51
#
DISCID=740ea009
DTITLE=Diana Krall - LIVE IN PARIS
DYEAR=2001
DGENRE=Jazz
TTITLE0=I Love Being Here With You
TTITLE1=All Or Nothing
TTITLE2=Let's Fall In Love
TTITLE3=The Look Of Love
TTITLE4=Maybe You'll Be There
TTITLE5=Deed I Do
TTITLE6=Devil May Care
TTITLE7=Cry Me A River
TTITLE8=Under My Skin
EXTD=YEAR: 2001
EXTT0=
EXTT1=
EXTT2=
EXTT3=
EXTT4=
EXTT5=
EXTT6=
EXTT7=
EXTT8=
PLAYORDER=
